# xmcd CD database file
#
# Track frame offsets:
#	150
#	22285
#	35711
#	51400
#	67603
#	80391
#	96060
#	113059
#	127543
#	141375
#
# Disc length: 2081 seconds
#
# Revision: 0
# Processed by: cddbd v1.4PL0 Copyright (c) Steve Scherf et al.
# Submitted via: NeoAudio 1.5.7
#
DISCID=81081f0a
DTITLE=Grupo Karu - Así Lo Quisistes
DYEAR=1900
DGENRE=Merengue
TTITLE0=Mosaico Separación Apasionada
TTITLE1=Regresa Ya
TTITLE2=Con Las Alas Rotas
TTITLE3=Mosaico Miradas Apasionadas
TTITLE4=Entre la Espada y La Pared
TTITLE5=Entre Golpes y Besos
TTITLE6=Ilusión Apasionada
TTITLE7=Gracias a tí Mujer
TTITLE8=Este Dolor
TTITLE9=Aunque Pase El Tiempo
EXTD=
EXTT0=
EXTT1=
EXTT2=
EXTT3=
EXTT4=
EXTT5=
EXTT6=
EXTT7=
EXTT8=
EXTT9=
PLAYORDER=
